<svg width="29" height="29" viewBox="0 0 29 29" fill="none" xmlns="http://www.w3.org/2000/svg">
<path d="M27.2203 20.2444C27.1706 20.2031 21.5559 16.185 20.0325 16.4484C19.3003 16.5778 18.8813 17.0766 18.0422 18.0769C17.8102 18.3551 17.573 18.6289 17.3306 18.8981C16.8003 18.7254 16.283 18.5148 15.7828 18.2681C13.2005 17.0109 11.1141 14.9245 9.85687 12.3422C9.61019 11.842 9.39965 11.3247 9.22688 10.7944C9.5025 10.5422 9.88875 10.2169 10.0538 10.0781C11.0484 9.24375 11.5472 8.82469 11.6766 8.09156C11.9419 6.57375 7.92188 0.954375 7.88063 0.90375C7.69755 0.644115 7.45912 0.428367 7.18253 0.272078C6.90595 0.11579 6.59811 0.022861 6.28125 0C4.65188 0 0 6.03375 0 7.05094C0 7.11 0.0853126 13.1137 7.48875 20.6447C15.0113 28.0397 21.015 28.125 21.0741 28.125C22.0912 28.125 28.125 23.4731 28.125 21.8438C28.1022 21.5268 28.0091 21.2188 27.8527 20.9422C27.6962 20.6656 27.4802 20.4273 27.2203 20.2444ZM20.9709 26.2444C20.1516 26.1769 15.1134 25.5122 8.81437 19.3237C2.59406 12.9909 1.94625 7.93875 1.88156 7.15594C3.11042 5.22717 4.59449 3.47346 6.29344 1.9425C6.33094 1.98 6.38063 2.03625 6.44438 2.10938C7.74734 3.88803 8.86976 5.79213 9.795 7.79344C9.49412 8.09613 9.17609 8.38129 8.8425 8.6475C8.32518 9.04167 7.85014 9.48844 7.425 9.98063L7.19719 10.2994L7.26469 10.6847C7.46309 11.5441 7.76696 12.3757 8.16937 13.1606C9.61114 16.1213 12.0035 18.5133 14.9644 19.9547C15.7491 20.3577 16.5808 20.6619 17.4403 20.8603L17.8256 20.9278L18.1444 20.7C18.6384 20.273 19.0871 19.7961 19.4831 19.2769C19.7766 18.9263 20.1694 18.4584 20.3175 18.3263C22.3245 19.2506 24.2335 20.3744 26.0156 21.6806C26.0934 21.7463 26.1478 21.7969 26.1844 21.8297C24.6537 23.5292 22.8999 25.0136 20.9709 26.2425V26.2444Z" fill="#CCCCCC"/>
</svg>
